<svg xmlns="http://www.w3.org/2000/svg" xmlns:xlink="http://www.w3.org/1999/xlink" width="1210" height="303.94"><rect width="1210" height="303.94" rx="0" ry="0" class="a"></rect><svg height="303.94" viewBox="0 0 120 30.394" width="1200" x="5" xmlns="http://www.w3.org/2000/svg" xmlns:xlink="http://www.w3.org/1999/xlink"><style>.a{fill:rgb(40,45,53)}.b{font-family:Monaco,Consolas,Menlo,'Bitstream Vera Sans Mono','Powerline Symbols',monospace}.c{fill:rgb(168,204,140);font-weight:bold;white-space:pre}.d{fill:rgb(185,192,203);white-space:pre}.e{fill:rgb(113,190,242);font-weight:bold;white-space:pre}.f{fill:rgb(168,204,140);white-space:pre}.g{fill:rgb(185,192,203);font-weight:bold;white-space:pre}.h{fill:rgb(111,119,131);white-space:pre}.i{fill:rgb(102,194,205);white-space:pre}.j{fill:transparent}.k{fill:rgb(111,118,131)}.m{animation-duration:20.2983s;animation-iteration-count:infinite;animation-name:l;animation-timing-function:steps(1,end)}.n{fill:rgb(102,194,205);text-decoration:underline;white-space:pre}@keyframes l{0%{transform:translateX(-0px)}0.15%{transform:translateX(-120px)}5.74%{transform:translateX(-240px)}6.23%{transform:translateX(-360px)}6.97%{transform:translateX(-480px)}7.52%{transform:translateX(-600px)}8.7%{transform:translateX(-720px)}9.81%{transform:translateX(-840px)}10.67%{transform:translateX(-960px)}10.89%{transform:translateX(-1080px)}12.17%{transform:translateX(-1200px)}12.82%{transform:translateX(-1320px)}13.63%{transform:translateX(-1440px)}14.05%{transform:translateX(-1560px)}14.64%{transform:translateX(-1680px)}15.59%{transform:translateX(-1800px)}15.79%{transform:translateX(-1920px)}16.78%{transform:translateX(-2040px)}18.18%{transform:translateX(-2160px)}19.34%{transform:translateX(-2280px)}22.1%{transform:translateX(-2400px)}26.85%{transform:translateX(-2520px)}26.85%{transform:translateX(-2640px)}27.57%{transform:translateX(-2760px)}27.96%{transform:translateX(-2880px)}28.4%{transform:translateX(-3000px)}29.03%{transform:translateX(-3120px)}29.61%{transform:translateX(-3240px)}30.11%{transform:translateX(-3360px)}30.5%{transform:translateX(-3480px)}30.9%{transform:translateX(-3600px)}31.26%{transform:translateX(-3720px)}34.22%{transform:translateX(-3840px)}40.47%{transform:translateX(-3960px)}40.48%{transform:translateX(-4080px)}40.48%{transform:translateX(-4200px)}44.94%{transform:translateX(-4320px)}47.77%{transform:translateX(-4440px)}48.96%{transform:translateX(-4560px)}52.26%{transform:translateX(-4680px)}52.26%{transform:translateX(-4800px)}52.26%{transform:translateX(-4920px)}56.45%{transform:translateX(-5040px)}60.34%{transform:translateX(-5160px)}60.34%{transform:translateX(-5280px)}60.35%{transform:translateX(-5400px)}64.07%{transform:translateX(-5520px)}68.43%{transform:translateX(-5640px)}68.43%{transform:translateX(-5760px)}78.96%{transform:translateX(-5880px)}78.96%{transform:translateX(-6000px)}81.68%{transform:translateX(-6120px)}81.69%{transform:translateX(-6240px)}88.81%{transform:translateX(-6360px)}88.81%{transform:translateX(-6480px)}88.84%{transform:translateX(-6600px)}88.85%{transform:translateX(-6720px)}88.89%{transform:translateX(-6840px)}100%{transform:translateX(-6960px)}}</style><g font-family="Monaco, Consolas, Menlo, &#x27;Bitstream Vera Sans Mono&#x27;, &#x27;Powerline Symbols&#x27;, monospace" font-size="1.67" class="b"><defs><symbol id="1"><text x="0" y="1.67" class="c">user@MAC023</text><text x="11.021999999999998" y="1.67" class="d">:</text><text x="12.024" y="1.67" class="e">~/sfcc-users</text><text x="24.048" y="1.67" class="d">$</text></symbol><symbol id="2"><text x="0" y="1.67" class="c">user@MAC023</text><text x="11.021999999999998" y="1.67" class="d">:</text><text x="12.024" y="1.67" class="e">~/sfcc-users</text><text x="24.048" y="1.67" class="d">$</text><text x="26.052" y="1.67" class="d">npx</text></symbol><symbol id="3"><text x="0" y="1.67" class="c">user@MAC023</text><text x="11.021999999999998" y="1.67" class="d">:</text><text x="12.024" y="1.67" class="e">~/sfcc-users</text><text x="24.048" y="1.67" class="d">$</text><text x="26.052" y="1.67" class="d">npx</text><text x="30.059999999999995" y="1.67" class="d">sfcc-users</text></symbol><symbol id="4"><text x="0" y="1.67" class="c">user@MAC023</text><text x="11.021999999999998" y="1.67" class="d">:</text><text x="12.024" y="1.67" class="e">~/sfcc-users</text><text x="24.048" y="1.67" class="d">$</text><text x="26.052" y="1.67" class="d">npx</text><text x="30.059999999999995" y="1.67" class="d">sfcc-users</text><text x="41.082" y="1.67" class="d">add</text></symbol><symbol id="5"><text x="0" y="1.67" class="d">⠙</text></symbol><symbol id="6"><text x="0" y="1.67" class="f">✔</text><text x="2.004" y="1.67" class="g">Specify</text><text x="10.02" y="1.67" class="g">filename</text><text x="19.037999999999997" y="1.67" class="g">with</text><text x="24.048" y="1.67" class="g">emails</text><text x="31.061999999999998" y="1.67" class="g">(one</text><text x="36.071999999999996" y="1.67" class="g">per</text><text x="40.08" y="1.67" class="g">line)</text><text x="46.09199999999999" y="1.67" class="g">or</text><text x="49.098" y="1.67" class="g">inline</text><text x="56.111999999999995" y="1.67" class="g">email</text><text x="62.123999999999995" y="1.67" class="g">(comma</text><text x="69.13799999999999" y="1.67" class="g">separated)</text><text x="80.16" y="1.67" class="h">…</text><text x="82.164" y="1.67" class="d">john.doe@example.com,</text><text x="104.208" y="1.67" class="d">jane.doe@example</text></symbol><symbol id="7"><text x="0" y="1.67" class="d">.com</text></symbol><symbol id="8"><text x="0" y="1.67" class="i">?</text><text x="2.004" y="1.67" class="g">Pick</text><text x="7.013999999999999" y="1.67" class="g">instances</text><text x="17.034" y="1.67" class="g">users</text><text x="23.045999999999996" y="1.67" class="g">can</text><text x="27.054" y="1.67" class="g">access</text><text x="34.068" y="1.67" class="h">›</text><text x="36.071999999999996" y="1.67" class="h">-</text><text x="38.07599999999999" y="1.67" class="h">Space</text><text x="44.087999999999994" y="1.67" class="h">to</text><text x="47.093999999999994" y="1.67" class="h">select.</text><text x="55.10999999999999" y="1.67" class="h">Return</text><text x="62.123999999999995" y="1.67" class="h">to</text><text x="65.13" y="1.67" class="h">submit</text></symbol><symbol id="9"><text x="0" y="1.67" class="d">Instructions:</text></symbol><symbol id="10"><text x="4.008" y="1.67" class="d">↑/↓:</text><text x="9.017999999999999" y="1.67" class="d">Highlight</text><text x="19.037999999999997" y="1.67" class="d">option</text></symbol><symbol id="11"><text x="4.008" y="1.67" class="d">←/→/[space]:</text><text x="17.034" y="1.67" class="d">Toggle</text><text x="24.048" y="1.67" class="d">selection</text></symbol><symbol id="12"><text x="4.008" y="1.67" class="d">a:</text><text x="7.013999999999999" y="1.67" class="d">Toggle</text><text x="14.027999999999999" y="1.67" class="d">all</text></symbol><symbol id="13"><text x="4.008" y="1.67" class="d">enter/return:</text><text x="18.035999999999998" y="1.67" class="d">Complete</text><text x="27.054" y="1.67" class="d">answer</text></symbol><symbol id="14"><text x="0" y="1.67" class="d">◯</text><text x="4.008" y="1.67" class="d">staging-us01-nto.demandware.net</text></symbol><symbol id="15"><text x="0" y="1.67" class="d">◯</text><text x="4.008" y="1.67" class="d">production-us01-nto.demandware.net</text></symbol><symbol id="16"><text x="0" y="1.67" class="f">◉</text><text x="4.008" y="1.67" class="d">development-us01-nto.demandware.net</text></symbol><symbol id="17"><text x="0" y="1.67" class="f">✔</text><text x="2.004" y="1.67" class="g">Pick</text><text x="7.013999999999999" y="1.67" class="g">instances</text><text x="17.034" y="1.67" class="g">users</text><text x="23.045999999999996" y="1.67" class="g">can</text><text x="27.054" y="1.67" class="g">access</text><text x="34.068" y="1.67" class="h">›</text><text x="36.071999999999996" y="1.67" class="d">development-us01-nto.demandware.net,</text><text x="73.146" y="1.67" class="d">staging-us01-nto.demandware.net</text></symbol><symbol id="18"><text x="0" y="1.67" class="i">?</text><text x="2.004" y="1.67" class="g">AM</text><text x="5.01" y="1.67" class="g">role</text><text x="10.02" y="1.67" class="g">(optional)</text><text x="21.041999999999998" y="1.67" class="h">›</text><text x="23.045999999999996" y="1.67" class="h">-</text><text x="25.05" y="1.67" class="h">Space</text><text x="31.061999999999998" y="1.67" class="h">to</text><text x="34.068" y="1.67" class="h">select.</text><text x="42.083999999999996" y="1.67" class="h">Return</text><text x="49.098" y="1.67" class="h">to</text><text x="52.104" y="1.67" class="h">submit</text></symbol><symbol id="19"><text x="0" y="1.67" class="d">◯</text><text x="4.008" y="1.67" class="d">bm-admin</text></symbol><symbol id="20"><text x="0" y="1.67" class="f">✔</text><text x="2.004" y="1.67" class="g">AM</text><text x="5.01" y="1.67" class="g">role</text><text x="10.02" y="1.67" class="g">(optional)</text><text x="21.041999999999998" y="1.67" class="h">›</text><text x="23.045999999999996" y="1.67" class="d">bm-user</text></symbol><symbol id="21"><text x="0" y="1.67" class="i">?</text><text x="2.004" y="1.67" class="g">Additional</text><text x="13.026" y="1.67" class="g">local</text><text x="19.037999999999997" y="1.67" class="g">role</text><text x="24.048" y="1.67" class="g">(optional)</text><text x="35.06999999999999" y="1.67" class="h">›</text><text x="37.074" y="1.67" class="h">-</text><text x="39.077999999999996" y="1.67" class="h">Space</text><text x="45.089999999999996" y="1.67" class="h">to</text><text x="48.096" y="1.67" class="h">select.</text><text x="56.111999999999995" y="1.67" class="h">Return</text><text x="63.12599999999999" y="1.67" class="h">to</text><text x="66.13199999999999" y="1.67" class="h">submit</text></symbol><symbol id="22"><text x="0" y="1.67" class="f">✔</text><text x="2.004" y="1.67" class="g">Additional</text><text x="13.026" y="1.67" class="g">local</text><text x="19.037999999999997" y="1.67" class="g">role</text><text x="24.048" y="1.67" class="g">(optional)</text><text x="35.06999999999999" y="1.67" class="h">›</text><text x="37.074" y="1.67" class="d">Custom_Role</text></symbol><symbol id="23"><text x="0" y="1.67" class="d">Created/updated</text><text x="16.032" y="1.67" class="d">AM</text><text x="19.037999999999997" y="1.67" class="d">user:</text><text x="25.05" y="1.67" class="d">john.doe@example.com</text></symbol><symbol id="24"><text x="0" y="1.67" class="d">Created/updated</text><text x="16.032" y="1.67" class="d">AM</text><text x="19.037999999999997" y="1.67" class="d">user:</text><text x="25.05" y="1.67" class="d">jane.doe@example.com</text></symbol><symbol id="25"><text x="0" y="1.67" class="d">Created/updated</text><text x="16.032" y="1.67" class="d">local</text><text x="22.043999999999997" y="1.67" class="d">user</text><text x="27.054" y="1.67" class="d">jane.doe@example.com</text><text x="48.096" y="1.67" class="d">on</text><text x="51.102" y="1.67" class="d">instance</text><text x="60.11999999999999" y="1.67" class="d">development-us01-nto.demandware.net</text></symbol><symbol id="26"><text x="0" y="1.67" class="d">Created/updated</text><text x="16.032" y="1.67" class="d">local</text><text x="22.043999999999997" y="1.67" class="d">user</text><text x="27.054" y="1.67" class="d">john.doe@example.com</text><text x="48.096" y="1.67" class="d">on</text><text x="51.102" y="1.67" class="d">instance</text><text x="60.11999999999999" y="1.67" class="d">development-us01-nto.demandware.net</text></symbol><symbol id="27"><text x="0" y="1.67" class="d">Created/updated</text><text x="16.032" y="1.67" class="d">local</text><text x="22.043999999999997" y="1.67" class="d">user</text><text x="27.054" y="1.67" class="d">john.doe@example.com</text><text x="48.096" y="1.67" class="d">on</text><text x="51.102" y="1.67" class="d">instance</text><text x="60.11999999999999" y="1.67" class="d">staging-us01-nto.demandware.net</text></symbol><symbol id="28"><text x="0" y="1.67" class="d">Created/updated</text><text x="16.032" y="1.67" class="d">local</text><text x="22.043999999999997" y="1.67" class="d">user</text><text x="27.054" y="1.67" class="d">jane.doe@example.com</text><text x="48.096" y="1.67" class="d">on</text><text x="51.102" y="1.67" class="d">instance</text><text x="60.11999999999999" y="1.67" class="d">staging-us01-nto.demandware.net</text></symbol><symbol id="a"><rect height="15" width="120" x="0" y="0" class="j"></rect></symbol><symbol id="b"><rect height="2.171" width="1.1022" class="k"></rect></symbol></defs><rect height="30.394" width="120" class="a"></rect><g class="m"><svg x="0" y="0" width="7080"><svg x="0"><use xlink:href="#a"></use><use xlink:href="#b" x="-0.0040000000000000036" y="0"></use></svg><svg x="120"><use xlink:href="#a"></use><use xlink:href="#b" x="25.996" y="0"></use><use xlink:href="#1" y="0"></use></svg><svg x="240"><use xlink:href="#a"></use><use xlink:href="#b" x="26.996" y="0"></use><text x="0" y="1.67" class="c">user@MAC023</text><text x="11.021999999999998" y="1.67" class="d">:</text><text x="12.024" y="1.67" class="e">~/sfcc-users</text><text x="24.048" y="1.67" class="d">$</text><text x="26.052" y="1.67" class="d">n</text></svg><svg x="360"><use xlink:href="#a"></use><use xlink:href="#b" x="27.996" y="0"></use><text x="0" y="1.67" class="c">user@MAC023</text><text x="11.021999999999998" y="1.67" class="d">:</text><text x="12.024" y="1.67" class="e">~/sfcc-users</text><text x="24.048" y="1.67" class="d">$</text><text x="26.052" y="1.67" class="d">np</text></svg><svg x="480"><use xlink:href="#a"></use><use xlink:href="#b" x="28.996" y="0"></use><use xlink:href="#2" y="0"></use></svg><svg x="600"><use xlink:href="#a"></use><use xlink:href="#b" x="29.996" y="0"></use><use xlink:href="#2" y="0"></use></svg><svg x="720"><use xlink:href="#a"></use><use xlink:href="#b" x="30.996" y="0"></use><text x="0" y="1.67" class="c">user@MAC023</text><text x="11.021999999999998" y="1.67" class="d">:</text><text x="12.024" y="1.67" class="e">~/sfcc-users</text><text x="24.048" y="1.67" class="d">$</text><text x="26.052" y="1.67" class="d">npx</text><text x="30.059999999999995" y="1.67" class="d">s</text></svg><svg x="840"><use xlink:href="#a"></use><use xlink:href="#b" x="31.996" y="0"></use><text x="0" y="1.67" class="c">user@MAC023</text><text x="11.021999999999998" y="1.67" class="d">:</text><text x="12.024" y="1.67" class="e">~/sfcc-users</text><text x="24.048" y="1.67" class="d">$</text><text x="26.052" y="1.67" class="d">npx</text><text x="30.059999999999995" y="1.67" class="d">sf</text></svg><svg x="960"><use xlink:href="#a"></use><use xlink:href="#b" x="32.996" y="0"></use><text x="0" y="1.67" class="c">user@MAC023</text><text x="11.021999999999998" y="1.67" class="d">:</text><text x="12.024" y="1.67" class="e">~/sfcc-users</text><text x="24.048" y="1.67" class="d">$</text><text x="26.052" y="1.67" class="d">npx</text><text x="30.059999999999995" y="1.67" class="d">sfc</text></svg><svg x="1080"><use xlink:href="#a"></use><use xlink:href="#b" x="33.996" y="0"></use><text x="0" y="1.67" class="c">user@MAC023</text><text x="11.021999999999998" y="1.67" class="d">:</text><text x="12.024" y="1.67" class="e">~/sfcc-users</text><text x="24.048" y="1.67" class="d">$</text><text x="26.052" y="1.67" class="d">npx</text><text x="30.059999999999995" y="1.67" class="d">sfcc</text></svg><svg x="1200"><use xlink:href="#a"></use><use xlink:href="#b" x="34.996" y="0"></use><text x="0" y="1.67" class="c">user@MAC023</text><text x="11.021999999999998" y="1.67" class="d">:</text><text x="12.024" y="1.67" class="e">~/sfcc-users</text><text x="24.048" y="1.67" class="d">$</text><text x="26.052" y="1.67" class="d">npx</text><text x="30.059999999999995" y="1.67" class="d">sfcc-</text></svg><svg x="1320"><use xlink:href="#a"></use><use xlink:href="#b" x="35.996" y="0"></use><text x="0" y="1.67" class="c">user@MAC023</text><text x="11.021999999999998" y="1.67" class="d">:</text><text x="12.024" y="1.67" class="e">~/sfcc-users</text><text x="24.048" y="1.67" class="d">$</text><text x="26.052" y="1.67" class="d">npx</text><text x="30.059999999999995" y="1.67" class="d">sfcc-u</text></svg><svg x="1440"><use xlink:href="#a"></use><use xlink:href="#b" x="36.996" y="0"></use><text x="0" y="1.67" class="c">user@MAC023</text><text x="11.021999999999998" y="1.67" class="d">:</text><text x="12.024" y="1.67" class="e">~/sfcc-users</text><text x="24.048" y="1.67" class="d">$</text><text x="26.052" y="1.67" class="d">npx</text><text x="30.059999999999995" y="1.67" class="d">sfcc-us</text></svg><svg x="1560"><use xlink:href="#a"></use><use xlink:href="#b" x="37.996" y="0"></use><text x="0" y="1.67" class="c">user@MAC023</text><text x="11.021999999999998" y="1.67" class="d">:</text><text x="12.024" y="1.67" class="e">~/sfcc-users</text><text x="24.048" y="1.67" class="d">$</text><text x="26.052" y="1.67" class="d">npx</text><text x="30.059999999999995" y="1.67" class="d">sfcc-use</text></svg><svg x="1680"><use xlink:href="#a"></use><use xlink:href="#b" x="38.996" y="0"></use><text x="0" y="1.67" class="c">user@MAC023</text><text x="11.021999999999998" y="1.67" class="d">:</text><text x="12.024" y="1.67" class="e">~/sfcc-users</text><text x="24.048" y="1.67" class="d">$</text><text x="26.052" y="1.67" class="d">npx</text><text x="30.059999999999995" y="1.67" class="d">sfcc-user</text></svg><svg x="1800"><use xlink:href="#a"></use><use xlink:href="#b" x="39.996" y="0"></use><use xlink:href="#3" y="0"></use></svg><svg x="1920"><use xlink:href="#a"></use><use xlink:href="#b" x="40.996" y="0"></use><use xlink:href="#3" y="0"></use></svg><svg x="2040"><use xlink:href="#a"></use><use xlink:href="#b" x="41.996" y="0"></use><text x="0" y="1.67" class="c">user@MAC023</text><text x="11.021999999999998" y="1.67" class="d">:</text><text x="12.024" y="1.67" class="e">~/sfcc-users</text><text x="24.048" y="1.67" class="d">$</text><text x="26.052" y="1.67" class="d">npx</text><text x="30.059999999999995" y="1.67" class="d">sfcc-users</text><text x="41.082" y="1.67" class="d">a</text></svg><svg x="2160"><use xlink:href="#a"></use><use xlink:href="#b" x="42.996" y="0"></use><text x="0" y="1.67" class="c">user@MAC023</text><text x="11.021999999999998" y="1.67" class="d">:</text><text x="12.024" y="1.67" class="e">~/sfcc-users</text><text x="24.048" y="1.67" class="d">$</text><text x="26.052" y="1.67" class="d">npx</text><text x="30.059999999999995" y="1.67" class="d">sfcc-users</text><text x="41.082" y="1.67" class="d">ad</text></svg><svg x="2280"><use xlink:href="#a"></use><use xlink:href="#b" x="43.996" y="0"></use><use xlink:href="#4" y="0"></use></svg><svg x="2400"><use xlink:href="#a"></use><use xlink:href="#b" x="-0.0040000000000000036" y="2.146"></use><use xlink:href="#4" y="0"></use></svg><svg x="2520"><use xlink:href="#a"></use><use xlink:href="#b" x="-0.0040000000000000036" y="2.146"></use><use xlink:href="#4" y="0"></use></svg><svg x="2640"><use xlink:href="#a"></use><use xlink:href="#b" x="0.996" y="2.146"></use><use xlink:href="#4" y="0"></use><use xlink:href="#5" y="2.171"></use></svg><svg x="2760"><use xlink:href="#a"></use><use xlink:href="#b" x="0.996" y="2.146"></use><use xlink:href="#4" y="0"></use><text x="0" y="3.8409999999999997" class="d">⠹</text></svg><svg x="2880"><use xlink:href="#a"></use><use xlink:href="#b" x="0.996" y="2.146"></use><use xlink:href="#4" y="0"></use><text x="0" y="3.8409999999999997" class="d">⠸</text></svg><svg x="3000"><use xlink:href="#a"></use><use xlink:href="#b" x="0.996" y="2.146"></use><use xlink:href="#4" y="0"></use><text x="0" y="3.8409999999999997" class="d">⠼</text></svg><svg x="3120"><use xlink:href="#a"></use><use xlink:href="#b" x="0.996" y="2.146"></use><use xlink:href="#4" y="0"></use><text x="0" y="3.8409999999999997" class="d">⠴</text></svg><svg x="3240"><use xlink:href="#a"></use><use xlink:href="#b" x="0.996" y="2.146"></use><use xlink:href="#4" y="0"></use><text x="0" y="3.8409999999999997" class="d">⠦</text></svg><svg x="3360"><use xlink:href="#a"></use><use xlink:href="#b" x="0.996" y="2.146"></use><use xlink:href="#4" y="0"></use><text x="0" y="3.8409999999999997" class="d">⠧</text></svg><svg x="3480"><use xlink:href="#a"></use><use xlink:href="#b" x="0.996" y="2.146"></use><use xlink:href="#4" y="0"></use><text x="0" y="3.8409999999999997" class="d">⠇</text></svg><svg x="3600"><use xlink:href="#a"></use><use xlink:href="#b" x="0.996" y="2.146"></use><use xlink:href="#4" y="0"></use><text x="0" y="3.8409999999999997" class="d">⠏</text></svg><svg x="3720"><use xlink:href="#a"></use><use xlink:href="#b" x="-0.0040000000000000036" y="2.146"></use><use xlink:href="#4" y="0"></use></svg><svg x="3840"><use xlink:href="#a"></use><use xlink:href="#b" x="3.996" y="4.317"></use><use xlink:href="#4" y="0"></use><text x="0" y="3.8409999999999997" class="i">?</text><text x="2.004" y="3.8409999999999997" class="g">Specify</text><text x="10.02" y="3.8409999999999997" class="g">filename</text><text x="19.037999999999997" y="3.8409999999999997" class="g">with</text><text x="24.048" y="3.8409999999999997" class="g">emails</text><text x="31.061999999999998" y="3.8409999999999997" class="g">(one</text><text x="36.071999999999996" y="3.8409999999999997" class="g">per</text><text x="40.08" y="3.8409999999999997" class="g">line)</text><text x="46.09199999999999" y="3.8409999999999997" class="g">or</text><text x="49.098" y="3.8409999999999997" class="g">inline</text><text x="56.111999999999995" y="3.8409999999999997" class="g">email</text><text x="62.123999999999995" y="3.8409999999999997" class="g">(comma</text><text x="69.13799999999999" y="3.8409999999999997" class="g">separated)</text><text x="80.16" y="3.8409999999999997" class="h">›</text><text x="82.164" y="3.8409999999999997" class="h">john.doe@example.com,</text><text x="104.208" y="3.8409999999999997" class="h">jane.doe@example</text><text x="0" y="6.012" class="h">.com</text></svg><svg x="3960"><use xlink:href="#a"></use><use xlink:href="#b" x="-0.0040000000000000036" y="6.4879999999999995"></use><use xlink:href="#4" y="0"></use><use xlink:href="#6" y="2.171"></use><use xlink:href="#7" y="4.342"></use></svg><svg x="4080"><use xlink:href="#a"></use><use xlink:href="#4" y="0"></use><use xlink:href="#6" y="2.171"></use><use xlink:href="#7" y="4.342"></use></svg><svg x="4200"><use xlink:href="#a"></use><use xlink:href="#4" y="0"></use><use xlink:href="#6" y="2.171"></use><use xlink:href="#7" y="4.342"></use><use xlink:href="#8" y="6.513"></use><use xlink:href="#9" y="8.684"></use><use xlink:href="#10" y="10.855"></use><use xlink:href="#11" y="13.026"></use><use xlink:href="#12" y="15.197"></use><use xlink:href="#13" y="17.368"></use><text x="0" y="21.209000000000003" class="d">◯</text><text x="4.008" y="21.209000000000003" class="n">development-us01-nto.demandware.net</text><use xlink:href="#14" y="21.71"></use><use xlink:href="#15" y="23.880999999999997"></use></svg><svg x="4320"><use xlink:href="#a"></use><use xlink:href="#4" y="0"></use><use xlink:href="#6" y="2.171"></use><use xlink:href="#7" y="4.342"></use><use xlink:href="#8" y="6.513"></use><use xlink:href="#9" y="8.684"></use><use xlink:href="#10" y="10.855"></use><use xlink:href="#11" y="13.026"></use><use xlink:href="#12" y="15.197"></use><use xlink:href="#13" y="17.368"></use><text x="0" y="21.209000000000003" class="f">◉</text><text x="4.008" y="21.209000000000003" class="n">development-us01-nto.demandware.net</text><use xlink:href="#14" y="21.71"></use><use xlink:href="#15" y="23.880999999999997"></use></svg><svg x="4440"><use xlink:href="#a"></use><use xlink:href="#4" y="0"></use><use xlink:href="#6" y="2.171"></use><use xlink:href="#7" y="4.342"></use><use xlink:href="#8" y="6.513"></use><use xlink:href="#9" y="8.684"></use><use xlink:href="#10" y="10.855"></use><use xlink:href="#11" y="13.026"></use><use xlink:href="#12" y="15.197"></use><use xlink:href="#13" y="17.368"></use><use xlink:href="#16" y="19.539"></use><text x="0" y="23.380000000000003" class="d">◯</text><text x="4.008" y="23.380000000000003" class="n">staging-us01-nto.demandware.net</text><use xlink:href="#15" y="23.880999999999997"></use></svg><svg x="4560"><use xlink:href="#a"></use><use xlink:href="#4" y="0"></use><use xlink:href="#6" y="2.171"></use><use xlink:href="#7" y="4.342"></use><use xlink:href="#8" y="6.513"></use><use xlink:href="#9" y="8.684"></use><use xlink:href="#10" y="10.855"></use><use xlink:href="#11" y="13.026"></use><use xlink:href="#12" y="15.197"></use><use xlink:href="#13" y="17.368"></use><use xlink:href="#16" y="19.539"></use><text x="0" y="23.380000000000003" class="f">◉</text><text x="4.008" y="23.380000000000003" class="n">staging-us01-nto.demandware.net</text><use xlink:href="#15" y="23.880999999999997"></use></svg><svg x="4680"><use xlink:href="#a"></use><use xlink:href="#4" y="0"></use><use xlink:href="#6" y="2.171"></use><use xlink:href="#7" y="4.342"></use><use xlink:href="#17" y="6.513"></use></svg><svg x="4800"><use xlink:href="#a"></use><use xlink:href="#b" x="-0.0040000000000000036" y="8.658999999999999"></use><use xlink:href="#4" y="0"></use><use xlink:href="#6" y="2.171"></use><use xlink:href="#7" y="4.342"></use><use xlink:href="#17" y="6.513"></use></svg><svg x="4920"><use xlink:href="#a"></use><use xlink:href="#4" y="0"></use><use xlink:href="#6" y="2.171"></use><use xlink:href="#7" y="4.342"></use><use xlink:href="#17" y="6.513"></use><use xlink:href="#18" y="8.684"></use><use xlink:href="#9" y="10.855"></use><use xlink:href="#10" y="13.026"></use><use xlink:href="#11" y="15.197"></use><use xlink:href="#13" y="17.368"></use><text x="0" y="21.209000000000003" class="d">◯</text><text x="4.008" y="21.209000000000003" class="n">bm-user</text><use xlink:href="#19" y="21.71"></use></svg><svg x="5040"><use xlink:href="#a"></use><use xlink:href="#4" y="0"></use><use xlink:href="#6" y="2.171"></use><use xlink:href="#7" y="4.342"></use><use xlink:href="#17" y="6.513"></use><use xlink:href="#18" y="8.684"></use><use xlink:href="#9" y="10.855"></use><use xlink:href="#10" y="13.026"></use><use xlink:href="#11" y="15.197"></use><use xlink:href="#13" y="17.368"></use><text x="0" y="21.209000000000003" class="f">◉</text><text x="4.008" y="21.209000000000003" class="n">bm-user</text><use xlink:href="#19" y="21.71"></use></svg><svg x="5160"><use xlink:href="#a"></use><use xlink:href="#4" y="0"></use><use xlink:href="#6" y="2.171"></use><use xlink:href="#7" y="4.342"></use><use xlink:href="#17" y="6.513"></use><use xlink:href="#20" y="8.684"></use></svg><svg x="5280"><use xlink:href="#a"></use><use xlink:href="#b" x="-0.0040000000000000036" y="10.83"></use><use xlink:href="#4" y="0"></use><use xlink:href="#6" y="2.171"></use><use xlink:href="#7" y="4.342"></use><use xlink:href="#17" y="6.513"></use><use xlink:href="#20" y="8.684"></use></svg><svg x="5400"><use xlink:href="#a"></use><use xlink:href="#4" y="0"></use><use xlink:href="#6" y="2.171"></use><use xlink:href="#7" y="4.342"></use><use xlink:href="#17" y="6.513"></use><use xlink:href="#20" y="8.684"></use><use xlink:href="#21" y="10.855"></use><use xlink:href="#9" y="13.026"></use><use xlink:href="#10" y="15.197"></use><use xlink:href="#11" y="17.368"></use><use xlink:href="#12" y="19.539"></use><use xlink:href="#13" y="21.71"></use><text x="0" y="25.550999999999995" class="d">◯</text><text x="4.008" y="25.550999999999995" class="n">Custom_Role</text></svg><svg x="5520"><use xlink:href="#a"></use><use xlink:href="#4" y="0"></use><use xlink:href="#6" y="2.171"></use><use xlink:href="#7" y="4.342"></use><use xlink:href="#17" y="6.513"></use><use xlink:href="#20" y="8.684"></use><use xlink:href="#21" y="10.855"></use><use xlink:href="#9" y="13.026"></use><use xlink:href="#10" y="15.197"></use><use xlink:href="#11" y="17.368"></use><use xlink:href="#12" y="19.539"></use><use xlink:href="#13" y="21.71"></use><text x="0" y="25.550999999999995" class="f">◉</text><text x="4.008" y="25.550999999999995" class="n">Custom_Role</text></svg><svg x="5640"><use xlink:href="#a"></use><use xlink:href="#4" y="0"></use><use xlink:href="#6" y="2.171"></use><use xlink:href="#7" y="4.342"></use><use xlink:href="#17" y="6.513"></use><use xlink:href="#20" y="8.684"></use><use xlink:href="#22" y="10.855"></use></svg><svg x="5760"><use xlink:href="#a"></use><use xlink:href="#b" x="-0.0040000000000000036" y="13.001"></use><use xlink:href="#4" y="0"></use><use xlink:href="#6" y="2.171"></use><use xlink:href="#7" y="4.342"></use><use xlink:href="#17" y="6.513"></use><use xlink:href="#20" y="8.684"></use><use xlink:href="#22" y="10.855"></use></svg><svg x="5880"><use xlink:href="#a"></use><use xlink:href="#b" x="-0.0040000000000000036" y="15.171999999999999"></use><use xlink:href="#4" y="0"></use><use xlink:href="#6" y="2.171"></use><use xlink:href="#7" y="4.342"></use><use xlink:href="#17" y="6.513"></use><use xlink:href="#20" y="8.684"></use><use xlink:href="#22" y="10.855"></use><use xlink:href="#23" y="13.026"></use></svg><svg x="6000"><use xlink:href="#a"></use><use xlink:href="#b" x="-0.0040000000000000036" y="17.343"></use><use xlink:href="#4" y="0"></use><use xlink:href="#6" y="2.171"></use><use xlink:href="#7" y="4.342"></use><use xlink:href="#17" y="6.513"></use><use xlink:href="#20" y="8.684"></use><use xlink:href="#22" y="10.855"></use><use xlink:href="#23" y="13.026"></use><use xlink:href="#24" y="15.197"></use></svg><svg x="6120"><use xlink:href="#a"></use><use xlink:href="#b" x="-0.0040000000000000036" y="19.514000000000003"></use><use xlink:href="#4" y="0"></use><use xlink:href="#6" y="2.171"></use><use xlink:href="#7" y="4.342"></use><use xlink:href="#17" y="6.513"></use><use xlink:href="#20" y="8.684"></use><use xlink:href="#22" y="10.855"></use><use xlink:href="#23" y="13.026"></use><use xlink:href="#24" y="15.197"></use><use xlink:href="#25" y="17.368"></use></svg><svg x="6240"><use xlink:href="#a"></use><use xlink:href="#b" x="-0.0040000000000000036" y="21.685000000000002"></use><use xlink:href="#4" y="0"></use><use xlink:href="#6" y="2.171"></use><use xlink:href="#7" y="4.342"></use><use xlink:href="#17" y="6.513"></use><use xlink:href="#20" y="8.684"></use><use xlink:href="#22" y="10.855"></use><use xlink:href="#23" y="13.026"></use><use xlink:href="#24" y="15.197"></use><use xlink:href="#25" y="17.368"></use><use xlink:href="#26" y="19.539"></use></svg><svg x="6360"><use xlink:href="#a"></use><use xlink:href="#b" x="-0.0040000000000000036" y="23.855999999999998"></use><use xlink:href="#4" y="0"></use><use xlink:href="#6" y="2.171"></use><use xlink:href="#7" y="4.342"></use><use xlink:href="#17" y="6.513"></use><use xlink:href="#20" y="8.684"></use><use xlink:href="#22" y="10.855"></use><use xlink:href="#23" y="13.026"></use><use xlink:href="#24" y="15.197"></use><use xlink:href="#25" y="17.368"></use><use xlink:href="#26" y="19.539"></use><use xlink:href="#27" y="21.71"></use></svg><svg x="6480"><use xlink:href="#a"></use><use xlink:href="#b" x="-0.0040000000000000036" y="26.027"></use><use xlink:href="#4" y="0"></use><use xlink:href="#6" y="2.171"></use><use xlink:href="#7" y="4.342"></use><use xlink:href="#17" y="6.513"></use><use xlink:href="#20" y="8.684"></use><use xlink:href="#22" y="10.855"></use><use xlink:href="#23" y="13.026"></use><use xlink:href="#24" y="15.197"></use><use xlink:href="#25" y="17.368"></use><use xlink:href="#26" y="19.539"></use><use xlink:href="#27" y="21.71"></use><use xlink:href="#28" y="23.880999999999997"></use></svg><svg x="6600"><use xlink:href="#a"></use><use xlink:href="#b" x="0.996" y="26.027"></use><use xlink:href="#4" y="0"></use><use xlink:href="#6" y="2.171"></use><use xlink:href="#7" y="4.342"></use><use xlink:href="#17" y="6.513"></use><use xlink:href="#20" y="8.684"></use><use xlink:href="#22" y="10.855"></use><use xlink:href="#23" y="13.026"></use><use xlink:href="#24" y="15.197"></use><use xlink:href="#25" y="17.368"></use><use xlink:href="#26" y="19.539"></use><use xlink:href="#27" y="21.71"></use><use xlink:href="#28" y="23.880999999999997"></use><use xlink:href="#5" y="26.052"></use></svg><svg x="6720"><use xlink:href="#a"></use><use xlink:href="#b" x="-0.0040000000000000036" y="26.027"></use><use xlink:href="#4" y="0"></use><use xlink:href="#6" y="2.171"></use><use xlink:href="#7" y="4.342"></use><use xlink:href="#17" y="6.513"></use><use xlink:href="#20" y="8.684"></use><use xlink:href="#22" y="10.855"></use><use xlink:href="#23" y="13.026"></use><use xlink:href="#24" y="15.197"></use><use xlink:href="#25" y="17.368"></use><use xlink:href="#26" y="19.539"></use><use xlink:href="#27" y="21.71"></use><use xlink:href="#28" y="23.880999999999997"></use></svg><svg x="6840"><use xlink:href="#a"></use><use xlink:href="#b" x="25.996" y="26.027"></use><use xlink:href="#4" y="0"></use><use xlink:href="#6" y="2.171"></use><use xlink:href="#7" y="4.342"></use><use xlink:href="#17" y="6.513"></use><use xlink:href="#20" y="8.684"></use><use xlink:href="#22" y="10.855"></use><use xlink:href="#23" y="13.026"></use><use xlink:href="#24" y="15.197"></use><use xlink:href="#25" y="17.368"></use><use xlink:href="#26" y="19.539"></use><use xlink:href="#27" y="21.71"></use><use xlink:href="#28" y="23.880999999999997"></use><use xlink:href="#1" y="26.052"></use></svg><svg x="6960"><use xlink:href="#a"></use><use xlink:href="#b" x="-0.0040000000000000036" y="28.198000000000004"></use><use xlink:href="#4" y="0"></use><use xlink:href="#6" y="2.171"></use><use xlink:href="#7" y="4.342"></use><use xlink:href="#17" y="6.513"></use><use xlink:href="#20" y="8.684"></use><use xlink:href="#22" y="10.855"></use><use xlink:href="#23" y="13.026"></use><use xlink:href="#24" y="15.197"></use><use xlink:href="#25" y="17.368"></use><use xlink:href="#26" y="19.539"></use><use xlink:href="#27" y="21.71"></use><use xlink:href="#28" y="23.880999999999997"></use><use xlink:href="#1" y="26.052"></use></svg></svg></g></g></svg></svg>