<svg xmlns="http://www.w3.org/2000/svg" xmlns:xlink="http://www.w3.org/1999/xlink" width="1210" height="868.4000000000001"><rect width="1210" height="868.4000000000001" rx="0" ry="0" class="a"></rect><svg height="868.4000000000001" viewBox="0 0 120 86.84" width="1200" x="5" xmlns="http://www.w3.org/2000/svg" xmlns:xlink="http://www.w3.org/1999/xlink"><style>.a{fill:rgb(40,45,53)}.b{font-family:Monaco,Consolas,Menlo,'Bitstream Vera Sans Mono','Powerline Symbols',monospace}.c{fill:rgb(168,204,140);font-weight:bold;white-space:pre}.d{fill:rgb(185,192,203);white-space:pre}.e{fill:rgb(113,190,242);font-weight:bold;white-space:pre}.f{fill:rgb(168,204,140);white-space:pre}.g{fill:rgb(185,192,203);font-weight:bold;white-space:pre}.h{fill:rgb(111,119,131);white-space:pre}.i{fill:transparent}.j{fill:rgb(111,118,131)}.l{animation-duration:24.619s;animation-iteration-count:infinite;animation-name:k;animation-timing-function:steps(1,end)}.m{fill:rgb(102,194,205);white-space:pre}@keyframes k{0%{transform:translateX(-0px)}0.09%{transform:translateX(-120px)}5.52%{transform:translateX(-240px)}5.86%{transform:translateX(-360px)}6.8%{transform:translateX(-480px)}7.63%{transform:translateX(-600px)}8.14%{transform:translateX(-720px)}8.59%{transform:translateX(-840px)}9.1%{transform:translateX(-960px)}9.68%{transform:translateX(-1080px)}10.19%{transform:translateX(-1200px)}11.15%{transform:translateX(-1320px)}11.58%{transform:translateX(-1440px)}11.86%{transform:translateX(-1560px)}12.35%{transform:translateX(-1680px)}12.8%{transform:translateX(-1800px)}13.27%{transform:translateX(-1920px)}13.66%{transform:translateX(-2040px)}13.92%{transform:translateX(-2160px)}14.49%{transform:translateX(-2280px)}14.67%{transform:translateX(-2400px)}15.26%{transform:translateX(-2520px)}16.99%{transform:translateX(-2640px)}20.88%{transform:translateX(-2760px)}20.88%{transform:translateX(-2880px)}21.47%{transform:translateX(-3000px)}21.79%{transform:translateX(-3120px)}22.12%{transform:translateX(-3240px)}22.44%{transform:translateX(-3360px)}22.84%{transform:translateX(-3480px)}23.37%{transform:translateX(-3600px)}23.78%{transform:translateX(-3720px)}24.11%{transform:translateX(-3840px)}24.44%{transform:translateX(-3960px)}24.69%{transform:translateX(-4080px)}27.16%{transform:translateX(-4200px)}30.94%{transform:translateX(-4320px)}30.95%{transform:translateX(-4440px)}35.78%{transform:translateX(-4560px)}35.78%{transform:translateX(-4680px)}40.7%{transform:translateX(-4800px)}40.7%{transform:translateX(-4920px)}49.54%{transform:translateX(-5040px)}49.95%{transform:translateX(-5160px)}50.52%{transform:translateX(-5280px)}50.91%{transform:translateX(-5400px)}51.62%{transform:translateX(-5520px)}54.04%{transform:translateX(-5640px)}56.06%{transform:translateX(-5760px)}57.38%{transform:translateX(-5880px)}57.88%{transform:translateX(-6000px)}58.62%{transform:translateX(-6120px)}58.92%{transform:translateX(-6240px)}60.53%{transform:translateX(-6360px)}60.53%{transform:translateX(-6480px)}60.54%{transform:translateX(-6600px)}60.59%{transform:translateX(-6720px)}60.6%{transform:translateX(-6840px)}60.63%{transform:translateX(-6960px)}68.42%{transform:translateX(-7080px)}68.71%{transform:translateX(-7200px)}69.54%{transform:translateX(-7320px)}69.87%{transform:translateX(-7440px)}72.06%{transform:translateX(-7560px)}72.17%{transform:translateX(-7680px)}73.09%{transform:translateX(-7800px)}75.6%{transform:translateX(-7920px)}75.63%{transform:translateX(-8040px)}75.63%{transform:translateX(-8160px)}100%{transform:translateX(-8280px)}}</style><g font-family="Monaco, Consolas, Menlo, &#x27;Bitstream Vera Sans Mono&#x27;, &#x27;Powerline Symbols&#x27;, monospace" font-size="1.67" class="b"><defs><symbol id="1"><text x="0" y="1.67" class="c">user@device</text><text x="11.021999999999998" y="1.67" class="d">:</text><text x="12.024" y="1.67" class="e">~/sfcc-users</text><text x="24.048" y="1.67" class="d">$</text></symbol><symbol id="2"><text x="0" y="1.67" class="c">user@device</text><text x="11.021999999999998" y="1.67" class="d">:</text><text x="12.024" y="1.67" class="e">~/sfcc-users</text><text x="24.048" y="1.67" class="d">$</text><text x="26.052" y="1.67" class="d">npx</text></symbol><symbol id="3"><text x="0" y="1.67" class="c">user@device</text><text x="11.021999999999998" y="1.67" class="d">:</text><text x="12.024" y="1.67" class="e">~/sfcc-users</text><text x="24.048" y="1.67" class="d">$</text><text x="26.052" y="1.67" class="d">npx</text><text x="30.059999999999995" y="1.67" class="d">sfcc-users</text></symbol><symbol id="4"><text x="0" y="1.67" class="c">user@device</text><text x="11.021999999999998" y="1.67" class="d">:</text><text x="12.024" y="1.67" class="e">~/sfcc-users</text><text x="24.048" y="1.67" class="d">$</text><text x="26.052" y="1.67" class="d">npx</text><text x="30.059999999999995" y="1.67" class="d">sfcc-users</text><text x="41.082" y="1.67" class="d">setup</text></symbol><symbol id="5"><text x="0" y="1.67" class="d">⠙</text></symbol><symbol id="6"><text x="0" y="1.67" class="f">✔</text><text x="2.004" y="1.67" class="g">Org</text><text x="6.012" y="1.67" class="g">name</text><text x="11.021999999999998" y="1.67" class="g">from</text><text x="16.032" y="1.67" class="g">AM</text><text x="19.037999999999997" y="1.67" class="g">(see</text><text x="24.048" y="1.67" class="g">https://account.demandware.com/</text><text x="56.111999999999995" y="1.67" class="g">Organizations</text><text x="70.13999999999999" y="1.67" class="g">row)</text><text x="75.14999999999999" y="1.67" class="h">…</text><text x="77.154" y="1.67" class="d">Northern</text><text x="86.172" y="1.67" class="d">Trail</text><text x="92.18399999999998" y="1.67" class="d">Outfitters</text></symbol><symbol id="7"><text x="0" y="1.67" class="f">✔</text><text x="2.004" y="1.67" class="g">Realm</text><text x="8.016" y="1.67" class="g">code</text><text x="13.026" y="1.67" class="g">(4</text><text x="16.032" y="1.67" class="g">letters)</text><text x="25.05" y="1.67" class="h">…</text><text x="27.054" y="1.67" class="d">abcd</text></symbol><symbol id="8"><text x="0" y="1.67" class="f">✔</text><text x="2.004" y="1.67" class="g">PIG</text><text x="6.012" y="1.67" class="g">instance</text><text x="15.029999999999998" y="1.67" class="g">hostname</text><text x="24.048" y="1.67" class="g">(any)</text><text x="30.059999999999995" y="1.67" class="h">…</text><text x="32.064" y="1.67" class="d">development-us01-nto.demandware.net</text></symbol><symbol id="9"><text x="0" y="1.67" class="f">✔</text><text x="2.004" y="1.67" class="g">Additional</text><text x="13.026" y="1.67" class="g">instance</text><text x="22.043999999999997" y="1.67" class="g">roles</text><text x="28.055999999999997" y="1.67" class="g">(comma</text><text x="35.06999999999999" y="1.67" class="g">separated,</text><text x="46.09199999999999" y="1.67" class="g">leave</text><text x="52.104" y="1.67" class="g">emtpy</text><text x="58.116" y="1.67" class="g">to</text><text x="61.12199999999999" y="1.67" class="g">skip)</text><text x="67.134" y="1.67" class="h">…</text><text x="69.13799999999999" y="1.67" class="d">Custom_Role</text></symbol><symbol id="10"><text x="0" y="1.67" class="d">Created</text><text x="8.016" y="1.67" class="d">/home/user/sfcc-users/sfcc-users.config.js</text></symbol><symbol id="11"><text x="0" y="1.67" class="c">user@device</text><text x="11.021999999999998" y="1.67" class="d">:</text><text x="12.024" y="1.67" class="e">~/sfcc-users</text><text x="24.048" y="1.67" class="d">$</text><text x="26.052" y="1.67" class="d">cat</text></symbol><symbol id="12"><text x="0" y="1.67" class="c">user@device</text><text x="11.021999999999998" y="1.67" class="d">:</text><text x="12.024" y="1.67" class="e">~/sfcc-users</text><text x="24.048" y="1.67" class="d">$</text><text x="26.052" y="1.67" class="d">cat</text><text x="30.059999999999995" y="1.67" class="d">sfcc-users.config.js</text></symbol><symbol id="13"><text x="0" y="1.67" class="d">import</text><text x="7.013999999999999" y="1.67" class="d">{</text><text x="9.017999999999999" y="1.67" class="d">createRequire</text><text x="23.045999999999996" y="1.67" class="d">}</text><text x="25.05" y="1.67" class="d">from</text><text x="30.059999999999995" y="1.67" class="d">&#x27;module&#x27;;</text></symbol><symbol id="14"><text x="0" y="1.67" class="d">const</text><text x="6.012" y="1.67" class="d">DW_PATH</text><text x="14.027999999999999" y="1.67" class="d">=</text><text x="16.032" y="1.67" class="d">&#x27;./dw.json&#x27;;</text></symbol><symbol id="15"><text x="0" y="1.67" class="d">const</text><text x="6.012" y="1.67" class="d">require</text><text x="14.027999999999999" y="1.67" class="d">=</text><text x="16.032" y="1.67" class="d">createRequire(import.meta.url);</text></symbol><symbol id="16"><text x="0" y="1.67" class="d">const</text><text x="6.012" y="1.67" class="d">dw</text><text x="9.017999999999999" y="1.67" class="d">=</text><text x="11.021999999999998" y="1.67" class="d">require(DW_PATH);</text></symbol><symbol id="17"><text x="0" y="1.67" class="d">export</text><text x="7.013999999999999" y="1.67" class="d">const</text><text x="13.026" y="1.67" class="d">configs</text><text x="21.041999999999998" y="1.67" class="d">=</text><text x="23.045999999999996" y="1.67" class="d">[</text></symbol><symbol id="18"><text x="4.008" y="1.67" class="d">{</text></symbol><symbol id="19"><text x="8.016" y="1.67" class="d">&quot;orgName&quot;:</text><text x="19.037999999999997" y="1.67" class="d">&quot;Northern</text><text x="29.058" y="1.67" class="d">Trail</text><text x="35.06999999999999" y="1.67" class="d">Outfitters&quot;,</text></symbol><symbol id="20"><text x="8.016" y="1.67" class="d">&quot;realm&quot;:</text><text x="17.034" y="1.67" class="d">&quot;abcd&quot;,</text></symbol><symbol id="21"><text x="8.016" y="1.67" class="d">&quot;instances&quot;:</text><text x="21.041999999999998" y="1.67" class="d">[</text></symbol><symbol id="22"><text x="12.024" y="1.67" class="d">{</text></symbol><symbol id="23"><text x="16.032" y="1.67" class="d">&quot;title&quot;:</text><text x="25.05" y="1.67" class="d">&quot;development-us01-nto.demandware.net&quot;,</text></symbol><symbol id="24"><text x="16.032" y="1.67" class="d">&quot;hostname&quot;:</text><text x="28.055999999999997" y="1.67" class="d">&quot;development-us01-nto.demandware.net&quot;,</text></symbol><symbol id="25"><text x="16.032" y="1.67" class="d">&quot;shortcode&quot;:</text><text x="29.058" y="1.67" class="d">&quot;abcd_dev&quot;</text></symbol><symbol id="26"><text x="12.024" y="1.67" class="d">},</text></symbol><symbol id="27"><text x="16.032" y="1.67" class="d">&quot;title&quot;:</text><text x="25.05" y="1.67" class="d">&quot;staging-us01-nto.demandware.net&quot;,</text></symbol><symbol id="28"><text x="16.032" y="1.67" class="d">&quot;hostname&quot;:</text><text x="28.055999999999997" y="1.67" class="d">&quot;staging-us01-nto.demandware.net&quot;,</text></symbol><symbol id="29"><text x="16.032" y="1.67" class="d">&quot;shortcode&quot;:</text><text x="29.058" y="1.67" class="d">&quot;abcd_stg&quot;</text></symbol><symbol id="30"><text x="16.032" y="1.67" class="d">&quot;title&quot;:</text><text x="25.05" y="1.67" class="d">&quot;production-us01-nto.demandware.net&quot;,</text></symbol><symbol id="31"><text x="16.032" y="1.67" class="d">&quot;hostname&quot;:</text><text x="28.055999999999997" y="1.67" class="d">&quot;production-us01-nto.demandware.net&quot;,</text></symbol><symbol id="32"><text x="16.032" y="1.67" class="d">&quot;shortcode&quot;:</text><text x="29.058" y="1.67" class="d">&quot;abcd_prd&quot;</text></symbol><symbol id="33"><text x="12.024" y="1.67" class="d">}</text></symbol><symbol id="34"><text x="8.016" y="1.67" class="d">],</text></symbol><symbol id="35"><text x="8.016" y="1.67" class="d">&quot;roles&quot;:</text><text x="17.034" y="1.67" class="d">[</text></symbol><symbol id="36"><text x="12.024" y="1.67" class="d">&quot;bm-user&quot;,</text></symbol><symbol id="37"><text x="12.024" y="1.67" class="d">&quot;bm-admin&quot;</text></symbol><symbol id="38"><text x="8.016" y="1.67" class="d">&quot;instanceRoles&quot;:</text><text x="25.05" y="1.67" class="d">[</text></symbol><symbol id="39"><text x="12.024" y="1.67" class="d">&quot;Custom_Role&quot;</text></symbol><symbol id="40"><text x="8.016" y="1.67" class="d">]</text></symbol><symbol id="41"><text x="4.008" y="1.67" class="d">}</text></symbol><symbol id="42"><text x="0" y="1.67" class="d">];</text></symbol><symbol id="43"><text x="0" y="1.67" class="d">export</text><text x="7.013999999999999" y="1.67" class="d">default</text><text x="15.029999999999998" y="1.67" class="d">configs.map((config)</text><text x="36.071999999999996" y="1.67" class="d">=&gt;</text><text x="39.077999999999996" y="1.67" class="d">({</text><text x="42.083999999999996" y="1.67" class="d">...dw,</text><text x="49.098" y="1.67" class="d">...config</text><text x="59.117999999999995" y="1.67" class="d">}));</text></symbol><symbol id="a"><rect height="41" width="120" x="0" y="0" class="i"></rect></symbol><symbol id="b"><rect height="2.171" width="1.1022" class="j"></rect></symbol></defs><rect height="86.84" width="120" class="a"></rect><g class="l"><svg x="0" y="0" width="8400"><svg x="0"><use xlink:href="#a"></use><use xlink:href="#b" x="-0.0040000000000000036" y="0"></use></svg><svg x="120"><use xlink:href="#a"></use><use xlink:href="#b" x="25.996" y="0"></use><use xlink:href="#1" y="0"></use></svg><svg x="240"><use xlink:href="#a"></use><use xlink:href="#b" x="26.996" y="0"></use><text x="0" y="1.67" class="c">user@device</text><text x="11.021999999999998" y="1.67" class="d">:</text><text x="12.024" y="1.67" class="e">~/sfcc-users</text><text x="24.048" y="1.67" class="d">$</text><text x="26.052" y="1.67" class="d">n</text></svg><svg x="360"><use xlink:href="#a"></use><use xlink:href="#b" x="27.996" y="0"></use><text x="0" y="1.67" class="c">user@device</text><text x="11.021999999999998" y="1.67" class="d">:</text><text x="12.024" y="1.67" class="e">~/sfcc-users</text><text x="24.048" y="1.67" class="d">$</text><text x="26.052" y="1.67" class="d">np</text></svg><svg x="480"><use xlink:href="#a"></use><use xlink:href="#b" x="28.996" y="0"></use><use xlink:href="#2" y="0"></use></svg><svg x="600"><use xlink:href="#a"></use><use xlink:href="#b" x="29.996" y="0"></use><use xlink:href="#2" y="0"></use></svg><svg x="720"><use xlink:href="#a"></use><use xlink:href="#b" x="30.996" y="0"></use><text x="0" y="1.67" class="c">user@device</text><text x="11.021999999999998" y="1.67" class="d">:</text><text x="12.024" y="1.67" class="e">~/sfcc-users</text><text x="24.048" y="1.67" class="d">$</text><text x="26.052" y="1.67" class="d">npx</text><text x="30.059999999999995" y="1.67" class="d">s</text></svg><svg x="840"><use xlink:href="#a"></use><use xlink:href="#b" x="31.996" y="0"></use><text x="0" y="1.67" class="c">user@device</text><text x="11.021999999999998" y="1.67" class="d">:</text><text x="12.024" y="1.67" class="e">~/sfcc-users</text><text x="24.048" y="1.67" class="d">$</text><text x="26.052" y="1.67" class="d">npx</text><text x="30.059999999999995" y="1.67" class="d">sf</text></svg><svg x="960"><use xlink:href="#a"></use><use xlink:href="#b" x="32.996" y="0"></use><text x="0" y="1.67" class="c">user@device</text><text x="11.021999999999998" y="1.67" class="d">:</text><text x="12.024" y="1.67" class="e">~/sfcc-users</text><text x="24.048" y="1.67" class="d">$</text><text x="26.052" y="1.67" class="d">npx</text><text x="30.059999999999995" y="1.67" class="d">sfc</text></svg><svg x="1080"><use xlink:href="#a"></use><use xlink:href="#b" x="33.996" y="0"></use><text x="0" y="1.67" class="c">user@device</text><text x="11.021999999999998" y="1.67" class="d">:</text><text x="12.024" y="1.67" class="e">~/sfcc-users</text><text x="24.048" y="1.67" class="d">$</text><text x="26.052" y="1.67" class="d">npx</text><text x="30.059999999999995" y="1.67" class="d">sfcc</text></svg><svg x="1200"><use xlink:href="#a"></use><use xlink:href="#b" x="34.996" y="0"></use><text x="0" y="1.67" class="c">user@device</text><text x="11.021999999999998" y="1.67" class="d">:</text><text x="12.024" y="1.67" class="e">~/sfcc-users</text><text x="24.048" y="1.67" class="d">$</text><text x="26.052" y="1.67" class="d">npx</text><text x="30.059999999999995" y="1.67" class="d">sfcc-</text></svg><svg x="1320"><use xlink:href="#a"></use><use xlink:href="#b" x="35.996" y="0"></use><text x="0" y="1.67" class="c">user@device</text><text x="11.021999999999998" y="1.67" class="d">:</text><text x="12.024" y="1.67" class="e">~/sfcc-users</text><text x="24.048" y="1.67" class="d">$</text><text x="26.052" y="1.67" class="d">npx</text><text x="30.059999999999995" y="1.67" class="d">sfcc-u</text></svg><svg x="1440"><use xlink:href="#a"></use><use xlink:href="#b" x="36.996" y="0"></use><text x="0" y="1.67" class="c">user@device</text><text x="11.021999999999998" y="1.67" class="d">:</text><text x="12.024" y="1.67" class="e">~/sfcc-users</text><text x="24.048" y="1.67" class="d">$</text><text x="26.052" y="1.67" class="d">npx</text><text x="30.059999999999995" y="1.67" class="d">sfcc-us</text></svg><svg x="1560"><use xlink:href="#a"></use><use xlink:href="#b" x="37.996" y="0"></use><text x="0" y="1.67" class="c">user@device</text><text x="11.021999999999998" y="1.67" class="d">:</text><text x="12.024" y="1.67" class="e">~/sfcc-users</text><text x="24.048" y="1.67" class="d">$</text><text x="26.052" y="1.67" class="d">npx</text><text x="30.059999999999995" y="1.67" class="d">sfcc-use</text></svg><svg x="1680"><use xlink:href="#a"></use><use xlink:href="#b" x="38.996" y="0"></use><text x="0" y="1.67" class="c">user@device</text><text x="11.021999999999998" y="1.67" class="d">:</text><text x="12.024" y="1.67" class="e">~/sfcc-users</text><text x="24.048" y="1.67" class="d">$</text><text x="26.052" y="1.67" class="d">npx</text><text x="30.059999999999995" y="1.67" class="d">sfcc-user</text></svg><svg x="1800"><use xlink:href="#a"></use><use xlink:href="#b" x="39.996" y="0"></use><use xlink:href="#3" y="0"></use></svg><svg x="1920"><use xlink:href="#a"></use><use xlink:href="#b" x="40.996" y="0"></use><use xlink:href="#3" y="0"></use></svg><svg x="2040"><use xlink:href="#a"></use><use xlink:href="#b" x="41.996" y="0"></use><text x="0" y="1.67" class="c">user@device</text><text x="11.021999999999998" y="1.67" class="d">:</text><text x="12.024" y="1.67" class="e">~/sfcc-users</text><text x="24.048" y="1.67" class="d">$</text><text x="26.052" y="1.67" class="d">npx</text><text x="30.059999999999995" y="1.67" class="d">sfcc-users</text><text x="41.082" y="1.67" class="d">s</text></svg><svg x="2160"><use xlink:href="#a"></use><use xlink:href="#b" x="42.996" y="0"></use><text x="0" y="1.67" class="c">user@device</text><text x="11.021999999999998" y="1.67" class="d">:</text><text x="12.024" y="1.67" class="e">~/sfcc-users</text><text x="24.048" y="1.67" class="d">$</text><text x="26.052" y="1.67" class="d">npx</text><text x="30.059999999999995" y="1.67" class="d">sfcc-users</text><text x="41.082" y="1.67" class="d">se</text></svg><svg x="2280"><use xlink:href="#a"></use><use xlink:href="#b" x="43.996" y="0"></use><text x="0" y="1.67" class="c">user@device</text><text x="11.021999999999998" y="1.67" class="d">:</text><text x="12.024" y="1.67" class="e">~/sfcc-users</text><text x="24.048" y="1.67" class="d">$</text><text x="26.052" y="1.67" class="d">npx</text><text x="30.059999999999995" y="1.67" class="d">sfcc-users</text><text x="41.082" y="1.67" class="d">set</text></svg><svg x="2400"><use xlink:href="#a"></use><use xlink:href="#b" x="44.996" y="0"></use><text x="0" y="1.67" class="c">user@device</text><text x="11.021999999999998" y="1.67" class="d">:</text><text x="12.024" y="1.67" class="e">~/sfcc-users</text><text x="24.048" y="1.67" class="d">$</text><text x="26.052" y="1.67" class="d">npx</text><text x="30.059999999999995" y="1.67" class="d">sfcc-users</text><text x="41.082" y="1.67" class="d">setu</text></svg><svg x="2520"><use xlink:href="#a"></use><use xlink:href="#b" x="45.996" y="0"></use><use xlink:href="#4" y="0"></use></svg><svg x="2640"><use xlink:href="#a"></use><use xlink:href="#b" x="-0.0040000000000000036" y="2.146"></use><use xlink:href="#4" y="0"></use></svg><svg x="2760"><use xlink:href="#a"></use><use xlink:href="#b" x="-0.0040000000000000036" y="2.146"></use><use xlink:href="#4" y="0"></use></svg><svg x="2880"><use xlink:href="#a"></use><use xlink:href="#b" x="0.996" y="2.146"></use><use xlink:href="#4" y="0"></use><use xlink:href="#5" y="2.171"></use></svg><svg x="3000"><use xlink:href="#a"></use><use xlink:href="#b" x="0.996" y="2.146"></use><use xlink:href="#4" y="0"></use><text x="0" y="3.8409999999999997" class="d">⠹</text></svg><svg x="3120"><use xlink:href="#a"></use><use xlink:href="#b" x="0.996" y="2.146"></use><use xlink:href="#4" y="0"></use><text x="0" y="3.8409999999999997" class="d">⠸</text></svg><svg x="3240"><use xlink:href="#a"></use><use xlink:href="#b" x="0.996" y="2.146"></use><use xlink:href="#4" y="0"></use><text x="0" y="3.8409999999999997" class="d">⠼</text></svg><svg x="3360"><use xlink:href="#a"></use><use xlink:href="#b" x="0.996" y="2.146"></use><use xlink:href="#4" y="0"></use><text x="0" y="3.8409999999999997" class="d">⠴</text></svg><svg x="3480"><use xlink:href="#a"></use><use xlink:href="#b" x="0.996" y="2.146"></use><use xlink:href="#4" y="0"></use><text x="0" y="3.8409999999999997" class="d">⠦</text></svg><svg x="3600"><use xlink:href="#a"></use><use xlink:href="#b" x="0.996" y="2.146"></use><use xlink:href="#4" y="0"></use><text x="0" y="3.8409999999999997" class="d">⠧</text></svg><svg x="3720"><use xlink:href="#a"></use><use xlink:href="#b" x="0.996" y="2.146"></use><use xlink:href="#4" y="0"></use><text x="0" y="3.8409999999999997" class="d">⠇</text></svg><svg x="3840"><use xlink:href="#a"></use><use xlink:href="#b" x="0.996" y="2.146"></use><use xlink:href="#4" y="0"></use><text x="0" y="3.8409999999999997" class="d">⠏</text></svg><svg x="3960"><use xlink:href="#a"></use><use xlink:href="#b" x="0.996" y="2.146"></use><use xlink:href="#4" y="0"></use><text x="0" y="3.8409999999999997" class="d">⠋</text></svg><svg x="4080"><use xlink:href="#a"></use><use xlink:href="#b" x="-0.0040000000000000036" y="2.146"></use><use xlink:href="#4" y="0"></use></svg><svg x="4200"><use xlink:href="#a"></use><use xlink:href="#b" x="101.996" y="2.146"></use><use xlink:href="#4" y="0"></use><text x="0" y="3.8409999999999997" class="m">?</text><text x="2.004" y="3.8409999999999997" class="g">Org</text><text x="6.012" y="3.8409999999999997" class="g">name</text><text x="11.021999999999998" y="3.8409999999999997" class="g">from</text><text x="16.032" y="3.8409999999999997" class="g">AM</text><text x="19.037999999999997" y="3.8409999999999997" class="g">(see</text><text x="24.048" y="3.8409999999999997" class="g">https://account.demandware.com/</text><text x="56.111999999999995" y="3.8409999999999997" class="g">Organizations</text><text x="70.13999999999999" y="3.8409999999999997" class="g">row)</text><text x="75.14999999999999" y="3.8409999999999997" class="h">›</text><text x="77.154" y="3.8409999999999997" class="h">Northern</text><text x="86.172" y="3.8409999999999997" class="h">Trail</text><text x="92.18399999999998" y="3.8409999999999997" class="h">Outfitters</text></svg><svg x="4320"><use xlink:href="#a"></use><use xlink:href="#b" x="-0.0040000000000000036" y="4.317"></use><use xlink:href="#4" y="0"></use><use xlink:href="#6" y="2.171"></use></svg><svg x="4440"><use xlink:href="#a"></use><use xlink:href="#b" x="30.996" y="4.317"></use><use xlink:href="#4" y="0"></use><use xlink:href="#6" y="2.171"></use><text x="0" y="6.012" class="m">?</text><text x="2.004" y="6.012" class="g">Realm</text><text x="8.016" y="6.012" class="g">code</text><text x="13.026" y="6.012" class="g">(4</text><text x="16.032" y="6.012" class="g">letters)</text><text x="25.05" y="6.012" class="h">›</text><text x="27.054" y="6.012" class="h">abcd</text></svg><svg x="4560"><use xlink:href="#a"></use><use xlink:href="#b" x="-0.0040000000000000036" y="6.4879999999999995"></use><use xlink:href="#4" y="0"></use><use xlink:href="#6" y="2.171"></use><use xlink:href="#7" y="4.342"></use></svg><svg x="4680"><use xlink:href="#a"></use><use xlink:href="#b" x="66.996" y="6.4879999999999995"></use><use xlink:href="#4" y="0"></use><use xlink:href="#6" y="2.171"></use><use xlink:href="#7" y="4.342"></use><text x="0" y="8.183" class="m">?</text><text x="2.004" y="8.183" class="g">PIG</text><text x="6.012" y="8.183" class="g">instance</text><text x="15.029999999999998" y="8.183" class="g">hostname</text><text x="24.048" y="8.183" class="g">(any)</text><text x="30.059999999999995" y="8.183" class="h">›</text><text x="32.064" y="8.183" class="h">development-us01-nto.demandware.net</text></svg><svg x="4800"><use xlink:href="#a"></use><use xlink:href="#b" x="-0.0040000000000000036" y="8.658999999999999"></use><use xlink:href="#4" y="0"></use><use xlink:href="#6" y="2.171"></use><use xlink:href="#7" y="4.342"></use><use xlink:href="#8" y="6.513"></use></svg><svg x="4920"><use xlink:href="#a"></use><use xlink:href="#b" x="68.996" y="8.658999999999999"></use><use xlink:href="#4" y="0"></use><use xlink:href="#6" y="2.171"></use><use xlink:href="#7" y="4.342"></use><use xlink:href="#8" y="6.513"></use><text x="0" y="10.354" class="m">?</text><text x="2.004" y="10.354" class="g">Additional</text><text x="13.026" y="10.354" class="g">instance</text><text x="22.043999999999997" y="10.354" class="g">roles</text><text x="28.055999999999997" y="10.354" class="g">(comma</text><text x="35.06999999999999" y="10.354" class="g">separated,</text><text x="46.09199999999999" y="10.354" class="g">leave</text><text x="52.104" y="10.354" class="g">emtpy</text><text x="58.116" y="10.354" class="g">to</text><text x="61.12199999999999" y="10.354" class="g">skip)</text><text x="67.134" y="10.354" class="h">›</text></svg><svg x="5040"><use xlink:href="#a"></use><use xlink:href="#b" x="69.996" y="8.658999999999999"></use><use xlink:href="#4" y="0"></use><use xlink:href="#6" y="2.171"></use><use xlink:href="#7" y="4.342"></use><use xlink:href="#8" y="6.513"></use><text x="0" y="10.354" class="m">?</text><text x="2.004" y="10.354" class="g">Additional</text><text x="13.026" y="10.354" class="g">instance</text><text x="22.043999999999997" y="10.354" class="g">roles</text><text x="28.055999999999997" y="10.354" class="g">(comma</text><text x="35.06999999999999" y="10.354" class="g">separated,</text><text x="46.09199999999999" y="10.354" class="g">leave</text><text x="52.104" y="10.354" class="g">emtpy</text><text x="58.116" y="10.354" class="g">to</text><text x="61.12199999999999" y="10.354" class="g">skip)</text><text x="67.134" y="10.354" class="h">›</text><text x="69.13799999999999" y="10.354" class="d">C</text></svg><svg x="5160"><use xlink:href="#a"></use><use xlink:href="#b" x="70.996" y="8.658999999999999"></use><use xlink:href="#4" y="0"></use><use xlink:href="#6" y="2.171"></use><use xlink:href="#7" y="4.342"></use><use xlink:href="#8" y="6.513"></use><text x="0" y="10.354" class="m">?</text><text x="2.004" y="10.354" class="g">Additional</text><text x="13.026" y="10.354" class="g">instance</text><text x="22.043999999999997" y="10.354" class="g">roles</text><text x="28.055999999999997" y="10.354" class="g">(comma</text><text x="35.06999999999999" y="10.354" class="g">separated,</text><text x="46.09199999999999" y="10.354" class="g">leave</text><text x="52.104" y="10.354" class="g">emtpy</text><text x="58.116" y="10.354" class="g">to</text><text x="61.12199999999999" y="10.354" class="g">skip)</text><text x="67.134" y="10.354" class="h">›</text><text x="69.13799999999999" y="10.354" class="d">Cu</text></svg><svg x="5280"><use xlink:href="#a"></use><use xlink:href="#b" x="71.996" y="8.658999999999999"></use><use xlink:href="#4" y="0"></use><use xlink:href="#6" y="2.171"></use><use xlink:href="#7" y="4.342"></use><use xlink:href="#8" y="6.513"></use><text x="0" y="10.354" class="m">?</text><text x="2.004" y="10.354" class="g">Additional</text><text x="13.026" y="10.354" class="g">instance</text><text x="22.043999999999997" y="10.354" class="g">roles</text><text x="28.055999999999997" y="10.354" class="g">(comma</text><text x="35.06999999999999" y="10.354" class="g">separated,</text><text x="46.09199999999999" y="10.354" class="g">leave</text><text x="52.104" y="10.354" class="g">emtpy</text><text x="58.116" y="10.354" class="g">to</text><text x="61.12199999999999" y="10.354" class="g">skip)</text><text x="67.134" y="10.354" class="h">›</text><text x="69.13799999999999" y="10.354" class="d">Cus</text></svg><svg x="5400"><use xlink:href="#a"></use><use xlink:href="#b" x="72.996" y="8.658999999999999"></use><use xlink:href="#4" y="0"></use><use xlink:href="#6" y="2.171"></use><use xlink:href="#7" y="4.342"></use><use xlink:href="#8" y="6.513"></use><text x="0" y="10.354" class="m">?</text><text x="2.004" y="10.354" class="g">Additional</text><text x="13.026" y="10.354" class="g">instance</text><text x="22.043999999999997" y="10.354" class="g">roles</text><text x="28.055999999999997" y="10.354" class="g">(comma</text><text x="35.06999999999999" y="10.354" class="g">separated,</text><text x="46.09199999999999" y="10.354" class="g">leave</text><text x="52.104" y="10.354" class="g">emtpy</text><text x="58.116" y="10.354" class="g">to</text><text x="61.12199999999999" y="10.354" class="g">skip)</text><text x="67.134" y="10.354" class="h">›</text><text x="69.13799999999999" y="10.354" class="d">Cust</text></svg><svg x="5520"><use xlink:href="#a"></use><use xlink:href="#b" x="73.996" y="8.658999999999999"></use><use xlink:href="#4" y="0"></use><use xlink:href="#6" y="2.171"></use><use xlink:href="#7" y="4.342"></use><use xlink:href="#8" y="6.513"></use><text x="0" y="10.354" class="m">?</text><text x="2.004" y="10.354" class="g">Additional</text><text x="13.026" y="10.354" class="g">instance</text><text x="22.043999999999997" y="10.354" class="g">roles</text><text x="28.055999999999997" y="10.354" class="g">(comma</text><text x="35.06999999999999" y="10.354" class="g">separated,</text><text x="46.09199999999999" y="10.354" class="g">leave</text><text x="52.104" y="10.354" class="g">emtpy</text><text x="58.116" y="10.354" class="g">to</text><text x="61.12199999999999" y="10.354" class="g">skip)</text><text x="67.134" y="10.354" class="h">›</text><text x="69.13799999999999" y="10.354" class="d">Custo</text></svg><svg x="5640"><use xlink:href="#a"></use><use xlink:href="#b" x="74.996" y="8.658999999999999"></use><use xlink:href="#4" y="0"></use><use xlink:href="#6" y="2.171"></use><use xlink:href="#7" y="4.342"></use><use xlink:href="#8" y="6.513"></use><text x="0" y="10.354" class="m">?</text><text x="2.004" y="10.354" class="g">Additional</text><text x="13.026" y="10.354" class="g">instance</text><text x="22.043999999999997" y="10.354" class="g">roles</text><text x="28.055999999999997" y="10.354" class="g">(comma</text><text x="35.06999999999999" y="10.354" class="g">separated,</text><text x="46.09199999999999" y="10.354" class="g">leave</text><text x="52.104" y="10.354" class="g">emtpy</text><text x="58.116" y="10.354" class="g">to</text><text x="61.12199999999999" y="10.354" class="g">skip)</text><text x="67.134" y="10.354" class="h">›</text><text x="69.13799999999999" y="10.354" class="d">Custom</text></svg><svg x="5760"><use xlink:href="#a"></use><use xlink:href="#b" x="75.996" y="8.658999999999999"></use><use xlink:href="#4" y="0"></use><use xlink:href="#6" y="2.171"></use><use xlink:href="#7" y="4.342"></use><use xlink:href="#8" y="6.513"></use><text x="0" y="10.354" class="m">?</text><text x="2.004" y="10.354" class="g">Additional</text><text x="13.026" y="10.354" class="g">instance</text><text x="22.043999999999997" y="10.354" class="g">roles</text><text x="28.055999999999997" y="10.354" class="g">(comma</text><text x="35.06999999999999" y="10.354" class="g">separated,</text><text x="46.09199999999999" y="10.354" class="g">leave</text><text x="52.104" y="10.354" class="g">emtpy</text><text x="58.116" y="10.354" class="g">to</text><text x="61.12199999999999" y="10.354" class="g">skip)</text><text x="67.134" y="10.354" class="h">›</text><text x="69.13799999999999" y="10.354" class="d">Custom_</text></svg><svg x="5880"><use xlink:href="#a"></use><use xlink:href="#b" x="76.996" y="8.658999999999999"></use><use xlink:href="#4" y="0"></use><use xlink:href="#6" y="2.171"></use><use xlink:href="#7" y="4.342"></use><use xlink:href="#8" y="6.513"></use><text x="0" y="10.354" class="m">?</text><text x="2.004" y="10.354" class="g">Additional</text><text x="13.026" y="10.354" class="g">instance</text><text x="22.043999999999997" y="10.354" class="g">roles</text><text x="28.055999999999997" y="10.354" class="g">(comma</text><text x="35.06999999999999" y="10.354" class="g">separated,</text><text x="46.09199999999999" y="10.354" class="g">leave</text><text x="52.104" y="10.354" class="g">emtpy</text><text x="58.116" y="10.354" class="g">to</text><text x="61.12199999999999" y="10.354" class="g">skip)</text><text x="67.134" y="10.354" class="h">›</text><text x="69.13799999999999" y="10.354" class="d">Custom_R</text></svg><svg x="6000"><use xlink:href="#a"></use><use xlink:href="#b" x="77.996" y="8.658999999999999"></use><use xlink:href="#4" y="0"></use><use xlink:href="#6" y="2.171"></use><use xlink:href="#7" y="4.342"></use><use xlink:href="#8" y="6.513"></use><text x="0" y="10.354" class="m">?</text><text x="2.004" y="10.354" class="g">Additional</text><text x="13.026" y="10.354" class="g">instance</text><text x="22.043999999999997" y="10.354" class="g">roles</text><text x="28.055999999999997" y="10.354" class="g">(comma</text><text x="35.06999999999999" y="10.354" class="g">separated,</text><text x="46.09199999999999" y="10.354" class="g">leave</text><text x="52.104" y="10.354" class="g">emtpy</text><text x="58.116" y="10.354" class="g">to</text><text x="61.12199999999999" y="10.354" class="g">skip)</text><text x="67.134" y="10.354" class="h">›</text><text x="69.13799999999999" y="10.354" class="d">Custom_Ro</text></svg><svg x="6120"><use xlink:href="#a"></use><use xlink:href="#b" x="78.996" y="8.658999999999999"></use><use xlink:href="#4" y="0"></use><use xlink:href="#6" y="2.171"></use><use xlink:href="#7" y="4.342"></use><use xlink:href="#8" y="6.513"></use><text x="0" y="10.354" class="m">?</text><text x="2.004" y="10.354" class="g">Additional</text><text x="13.026" y="10.354" class="g">instance</text><text x="22.043999999999997" y="10.354" class="g">roles</text><text x="28.055999999999997" y="10.354" class="g">(comma</text><text x="35.06999999999999" y="10.354" class="g">separated,</text><text x="46.09199999999999" y="10.354" class="g">leave</text><text x="52.104" y="10.354" class="g">emtpy</text><text x="58.116" y="10.354" class="g">to</text><text x="61.12199999999999" y="10.354" class="g">skip)</text><text x="67.134" y="10.354" class="h">›</text><text x="69.13799999999999" y="10.354" class="d">Custom_Rol</text></svg><svg x="6240"><use xlink:href="#a"></use><use xlink:href="#b" x="79.996" y="8.658999999999999"></use><use xlink:href="#4" y="0"></use><use xlink:href="#6" y="2.171"></use><use xlink:href="#7" y="4.342"></use><use xlink:href="#8" y="6.513"></use><text x="0" y="10.354" class="m">?</text><text x="2.004" y="10.354" class="g">Additional</text><text x="13.026" y="10.354" class="g">instance</text><text x="22.043999999999997" y="10.354" class="g">roles</text><text x="28.055999999999997" y="10.354" class="g">(comma</text><text x="35.06999999999999" y="10.354" class="g">separated,</text><text x="46.09199999999999" y="10.354" class="g">leave</text><text x="52.104" y="10.354" class="g">emtpy</text><text x="58.116" y="10.354" class="g">to</text><text x="61.12199999999999" y="10.354" class="g">skip)</text><text x="67.134" y="10.354" class="h">›</text><text x="69.13799999999999" y="10.354" class="d">Custom_Role</text></svg><svg x="6360"><use xlink:href="#a"></use><use xlink:href="#b" x="-0.0040000000000000036" y="10.83"></use><use xlink:href="#4" y="0"></use><use xlink:href="#6" y="2.171"></use><use xlink:href="#7" y="4.342"></use><use xlink:href="#8" y="6.513"></use><use xlink:href="#9" y="8.684"></use></svg><svg x="6480"><use xlink:href="#a"></use><use xlink:href="#b" x="-0.0040000000000000036" y="10.83"></use><use xlink:href="#4" y="0"></use><use xlink:href="#6" y="2.171"></use><use xlink:href="#7" y="4.342"></use><use xlink:href="#8" y="6.513"></use><use xlink:href="#9" y="8.684"></use></svg><svg x="6600"><use xlink:href="#a"></use><use xlink:href="#b" x="-0.0040000000000000036" y="13.001"></use><use xlink:href="#4" y="0"></use><use xlink:href="#6" y="2.171"></use><use xlink:href="#7" y="4.342"></use><use xlink:href="#8" y="6.513"></use><use xlink:href="#9" y="8.684"></use><use xlink:href="#10" y="10.855"></use></svg><svg x="6720"><use xlink:href="#a"></use><use xlink:href="#b" x="0.996" y="13.001"></use><use xlink:href="#4" y="0"></use><use xlink:href="#6" y="2.171"></use><use xlink:href="#7" y="4.342"></use><use xlink:href="#8" y="6.513"></use><use xlink:href="#9" y="8.684"></use><use xlink:href="#10" y="10.855"></use><use xlink:href="#5" y="13.026"></use></svg><svg x="6840"><use xlink:href="#a"></use><use xlink:href="#b" x="-0.0040000000000000036" y="13.001"></use><use xlink:href="#4" y="0"></use><use xlink:href="#6" y="2.171"></use><use xlink:href="#7" y="4.342"></use><use xlink:href="#8" y="6.513"></use><use xlink:href="#9" y="8.684"></use><use xlink:href="#10" y="10.855"></use></svg><svg x="6960"><use xlink:href="#a"></use><use xlink:href="#b" x="25.996" y="13.001"></use><use xlink:href="#4" y="0"></use><use xlink:href="#6" y="2.171"></use><use xlink:href="#7" y="4.342"></use><use xlink:href="#8" y="6.513"></use><use xlink:href="#9" y="8.684"></use><use xlink:href="#10" y="10.855"></use><use xlink:href="#1" y="13.026"></use></svg><svg x="7080"><use xlink:href="#a"></use><use xlink:href="#b" x="26.996" y="13.001"></use><use xlink:href="#4" y="0"></use><use xlink:href="#6" y="2.171"></use><use xlink:href="#7" y="4.342"></use><use xlink:href="#8" y="6.513"></use><use xlink:href="#9" y="8.684"></use><use xlink:href="#10" y="10.855"></use><text x="0" y="14.696" class="c">user@device</text><text x="11.021999999999998" y="14.696" class="d">:</text><text x="12.024" y="14.696" class="e">~/sfcc-users</text><text x="24.048" y="14.696" class="d">$</text><text x="26.052" y="14.696" class="d">c</text></svg><svg x="7200"><use xlink:href="#a"></use><use xlink:href="#b" x="27.996" y="13.001"></use><use xlink:href="#4" y="0"></use><use xlink:href="#6" y="2.171"></use><use xlink:href="#7" y="4.342"></use><use xlink:href="#8" y="6.513"></use><use xlink:href="#9" y="8.684"></use><use xlink:href="#10" y="10.855"></use><text x="0" y="14.696" class="c">user@device</text><text x="11.021999999999998" y="14.696" class="d">:</text><text x="12.024" y="14.696" class="e">~/sfcc-users</text><text x="24.048" y="14.696" class="d">$</text><text x="26.052" y="14.696" class="d">ca</text></svg><svg x="7320"><use xlink:href="#a"></use><use xlink:href="#b" x="28.996" y="13.001"></use><use xlink:href="#4" y="0"></use><use xlink:href="#6" y="2.171"></use><use xlink:href="#7" y="4.342"></use><use xlink:href="#8" y="6.513"></use><use xlink:href="#9" y="8.684"></use><use xlink:href="#10" y="10.855"></use><use xlink:href="#11" y="13.026"></use></svg><svg x="7440"><use xlink:href="#a"></use><use xlink:href="#b" x="29.996" y="13.001"></use><use xlink:href="#4" y="0"></use><use xlink:href="#6" y="2.171"></use><use xlink:href="#7" y="4.342"></use><use xlink:href="#8" y="6.513"></use><use xlink:href="#9" y="8.684"></use><use xlink:href="#10" y="10.855"></use><use xlink:href="#11" y="13.026"></use></svg><svg x="7560"><use xlink:href="#a"></use><use xlink:href="#b" x="30.996" y="13.001"></use><use xlink:href="#4" y="0"></use><use xlink:href="#6" y="2.171"></use><use xlink:href="#7" y="4.342"></use><use xlink:href="#8" y="6.513"></use><use xlink:href="#9" y="8.684"></use><use xlink:href="#10" y="10.855"></use><text x="0" y="14.696" class="c">user@device</text><text x="11.021999999999998" y="14.696" class="d">:</text><text x="12.024" y="14.696" class="e">~/sfcc-users</text><text x="24.048" y="14.696" class="d">$</text><text x="26.052" y="14.696" class="d">cat</text><text x="30.059999999999995" y="14.696" class="d">s</text></svg><svg x="7680"><use xlink:href="#a"></use><use xlink:href="#b" x="31.996" y="13.001"></use><use xlink:href="#4" y="0"></use><use xlink:href="#6" y="2.171"></use><use xlink:href="#7" y="4.342"></use><use xlink:href="#8" y="6.513"></use><use xlink:href="#9" y="8.684"></use><use xlink:href="#10" y="10.855"></use><text x="0" y="14.696" class="c">user@device</text><text x="11.021999999999998" y="14.696" class="d">:</text><text x="12.024" y="14.696" class="e">~/sfcc-users</text><text x="24.048" y="14.696" class="d">$</text><text x="26.052" y="14.696" class="d">cat</text><text x="30.059999999999995" y="14.696" class="d">sf</text></svg><svg x="7800"><use xlink:href="#a"></use><use xlink:href="#b" x="50.996" y="13.001"></use><use xlink:href="#4" y="0"></use><use xlink:href="#6" y="2.171"></use><use xlink:href="#7" y="4.342"></use><use xlink:href="#8" y="6.513"></use><use xlink:href="#9" y="8.684"></use><use xlink:href="#10" y="10.855"></use><use xlink:href="#12" y="13.026"></use></svg><svg x="7920"><use xlink:href="#a"></use><use xlink:href="#b" x="-0.0040000000000000036" y="15.171999999999999"></use><use xlink:href="#4" y="0"></use><use xlink:href="#6" y="2.171"></use><use xlink:href="#7" y="4.342"></use><use xlink:href="#8" y="6.513"></use><use xlink:href="#9" y="8.684"></use><use xlink:href="#10" y="10.855"></use><use xlink:href="#12" y="13.026"></use></svg><svg x="8040"><use xlink:href="#a"></use><use xlink:href="#b" x="11.996" y="86.815"></use><use xlink:href="#4" y="0"></use><use xlink:href="#6" y="2.171"></use><use xlink:href="#7" y="4.342"></use><use xlink:href="#8" y="6.513"></use><use xlink:href="#9" y="8.684"></use><use xlink:href="#10" y="10.855"></use><use xlink:href="#12" y="13.026"></use><use xlink:href="#13" y="17.368"></use><use xlink:href="#14" y="21.71"></use><use xlink:href="#15" y="23.880999999999997"></use><use xlink:href="#16" y="26.052"></use><use xlink:href="#17" y="30.394"></use><use xlink:href="#18" y="32.565"></use><use xlink:href="#19" y="34.736"></use><use xlink:href="#20" y="36.907000000000004"></use><use xlink:href="#21" y="39.078"></use><use xlink:href="#22" y="41.248999999999995"></use><use xlink:href="#23" y="43.42"></use><use xlink:href="#24" y="45.591"></use><use xlink:href="#25" y="47.76199999999999"></use><use xlink:href="#26" y="49.933"></use><use xlink:href="#22" y="52.104"></use><use xlink:href="#27" y="54.275"></use><use xlink:href="#28" y="56.446000000000005"></use><use xlink:href="#29" y="58.617"></use><use xlink:href="#26" y="60.788"></use><use xlink:href="#22" y="62.959"></use><use xlink:href="#30" y="65.13"></use><use xlink:href="#31" y="67.301"></use><use xlink:href="#32" y="69.472"></use><use xlink:href="#33" y="71.643"></use><use xlink:href="#34" y="73.81400000000001"></use><use xlink:href="#35" y="75.985"></use><use xlink:href="#36" y="78.156"></use><use xlink:href="#37" y="80.327"></use><use xlink:href="#34" y="82.49799999999999"></use><use xlink:href="#38" y="84.669"></use></svg><svg x="8160"><use xlink:href="#a"></use><use xlink:href="#b" x="-0.0040000000000000036" y="86.815"></use><use xlink:href="#12" y="0"></use><use xlink:href="#13" y="4.342"></use><use xlink:href="#14" y="8.684"></use><use xlink:href="#15" y="10.855"></use><use xlink:href="#16" y="13.026"></use><use xlink:href="#17" y="17.368"></use><use xlink:href="#18" y="19.539"></use><use xlink:href="#19" y="21.71"></use><use xlink:href="#20" y="23.880999999999997"></use><use xlink:href="#21" y="26.052"></use><use xlink:href="#22" y="28.223000000000003"></use><use xlink:href="#23" y="30.394"></use><use xlink:href="#24" y="32.565"></use><use xlink:href="#25" y="34.736"></use><use xlink:href="#26" y="36.907000000000004"></use><use xlink:href="#22" y="39.078"></use><use xlink:href="#27" y="41.248999999999995"></use><use xlink:href="#28" y="43.42"></use><use xlink:href="#29" y="45.591"></use><use xlink:href="#26" y="47.76199999999999"></use><use xlink:href="#22" y="49.933"></use><use xlink:href="#30" y="52.104"></use><use xlink:href="#31" y="54.275"></use><use xlink:href="#32" y="56.446000000000005"></use><use xlink:href="#33" y="58.617"></use><use xlink:href="#34" y="60.788"></use><use xlink:href="#35" y="62.959"></use><use xlink:href="#36" y="65.13"></use><use xlink:href="#37" y="67.301"></use><use xlink:href="#34" y="69.472"></use><use xlink:href="#38" y="71.643"></use><use xlink:href="#39" y="73.81400000000001"></use><use xlink:href="#40" y="75.985"></use><use xlink:href="#41" y="78.156"></use><use xlink:href="#42" y="80.327"></use><use xlink:href="#43" y="84.669"></use></svg><svg x="8280"><use xlink:href="#a"></use><use xlink:href="#b" x="25.996" y="86.815"></use><use xlink:href="#12" y="0"></use><use xlink:href="#13" y="4.342"></use><use xlink:href="#14" y="8.684"></use><use xlink:href="#15" y="10.855"></use><use xlink:href="#16" y="13.026"></use><use xlink:href="#17" y="17.368"></use><use xlink:href="#18" y="19.539"></use><use xlink:href="#19" y="21.71"></use><use xlink:href="#20" y="23.880999999999997"></use><use xlink:href="#21" y="26.052"></use><use xlink:href="#22" y="28.223000000000003"></use><use xlink:href="#23" y="30.394"></use><use xlink:href="#24" y="32.565"></use><use xlink:href="#25" y="34.736"></use><use xlink:href="#26" y="36.907000000000004"></use><use xlink:href="#22" y="39.078"></use><use xlink:href="#27" y="41.248999999999995"></use><use xlink:href="#28" y="43.42"></use><use xlink:href="#29" y="45.591"></use><use xlink:href="#26" y="47.76199999999999"></use><use xlink:href="#22" y="49.933"></use><use xlink:href="#30" y="52.104"></use><use xlink:href="#31" y="54.275"></use><use xlink:href="#32" y="56.446000000000005"></use><use xlink:href="#33" y="58.617"></use><use xlink:href="#34" y="60.788"></use><use xlink:href="#35" y="62.959"></use><use xlink:href="#36" y="65.13"></use><use xlink:href="#37" y="67.301"></use><use xlink:href="#34" y="69.472"></use><use xlink:href="#38" y="71.643"></use><use xlink:href="#39" y="73.81400000000001"></use><use xlink:href="#40" y="75.985"></use><use xlink:href="#41" y="78.156"></use><use xlink:href="#42" y="80.327"></use><use xlink:href="#43" y="84.669"></use><use xlink:href="#1" y="86.84"></use></svg></svg></g></g></svg></svg>